<svg width="40" height="40" viewBox="0 0 40 40" fill="none" xmlns="http://www.w3.org/2000/svg">
<rect width="40" height="40" rx="8" fill="#FAE8FF"/>
<path d="M16.866 12.9016C17.5139 11.0058 20.1334 10.9483 20.9014 12.7293L20.9664 12.9027L21.8407 15.4593C22.0411 16.0457 22.3648 16.5822 22.7902 17.0328C23.2155 17.4834 23.7325 17.8375 24.3064 18.0713L24.5414 18.159L27.0981 19.0322C28.9939 19.68 29.0514 22.2995 27.2714 23.0676L27.0981 23.1326L24.5414 24.0068C23.9549 24.2071 23.4181 24.5308 22.9674 24.9561C22.5166 25.3815 22.1623 25.8986 21.9284 26.4725L21.8407 26.7065L20.9675 29.2643C20.3197 31.1601 17.7002 31.2175 16.9332 29.4376L16.866 29.2643L15.9929 26.7076C15.7926 26.1211 15.4689 25.5843 15.0436 25.1335C14.6182 24.6828 14.1011 24.3285 13.5272 24.0946L13.2932 24.0068L10.7365 23.1337C8.83961 22.4858 8.7822 19.8663 10.5632 19.0993L10.7365 19.0322L13.2932 18.159C13.8795 17.9587 14.4161 17.6349 14.8667 17.2095C15.3172 16.7842 15.6713 16.2672 15.9051 15.6933L15.9929 15.4593L16.866 12.9016ZM27.5834 9.16626C27.7861 9.16626 27.9847 9.22311 28.1567 9.33035C28.3287 9.4376 28.4671 9.59093 28.5563 9.77293L28.6083 9.89968L28.9874 11.0112L30.1 11.3903C30.3031 11.4593 30.4812 11.5871 30.6116 11.7574C30.742 11.9277 30.819 12.1329 30.8327 12.3469C30.8464 12.561 30.7962 12.7743 30.6885 12.9599C30.5808 13.1454 30.4205 13.2948 30.2279 13.3891L30.1 13.4411L28.9885 13.8203L28.6094 14.9328C28.5402 15.1359 28.4124 15.3138 28.242 15.4442C28.0717 15.5745 27.8665 15.6513 27.6524 15.6649C27.4383 15.6785 27.2251 15.6282 27.0396 15.5204C26.8541 15.4127 26.7048 15.2523 26.6106 15.0596L26.5586 14.9328L26.1794 13.8213L25.0669 13.4422C24.8638 13.3732 24.6857 13.2454 24.5553 13.0751C24.4249 12.9048 24.3479 12.6996 24.3342 12.4856C24.3205 12.2715 24.3707 12.0582 24.4784 11.8727C24.586 11.6871 24.7464 11.5377 24.939 11.4434L25.0669 11.3914L26.1784 11.0123L26.5575 9.89968C26.6306 9.68564 26.7688 9.49983 26.9528 9.3683C27.1368 9.23677 27.3573 9.16612 27.5834 9.16626Z" fill="#E12AFB"/>
</svg>
