<svg width="91" height="28" viewBox="0 0 91 28" fill="none" xmlns="http://www.w3.org/2000/svg">
<rect x="0.0148926" width="90.2676" height="28" rx="4.01622" fill="#0F172B"/>
<path d="M14.5775 13.6395L8.07446 20.6975C8.07507 20.6987 8.07507 20.7006 8.07568 20.7018C8.27541 21.4682 8.9595 22.0322 9.77185 22.0322C10.0968 22.0322 10.4016 21.9423 10.663 21.7849L10.6838 21.7724L18.0034 17.4533L14.5775 13.6395Z" fill="#EA4335"/>
<path d="M21.1558 12.4373L21.1496 12.433L17.9894 10.5598L14.4291 13.7996L18.0023 17.4523L21.1454 15.5978C21.6963 15.293 22.0707 14.699 22.0707 14.0145C22.0707 13.3336 21.7018 12.7428 21.1558 12.4373Z" fill="#FBBC04"/>
<path d="M8.07432 7.3018C8.03523 7.44921 8.01447 7.60411 8.01447 7.76401V20.2361C8.01447 20.3959 8.03523 20.5509 8.07493 20.6976L14.8009 13.8201L8.07432 7.3018Z" fill="#4285F4"/>
<path d="M14.6258 13.9989L17.9912 10.558L10.6801 6.22324C10.4144 6.06021 10.1041 5.96652 9.77246 5.96652C8.96011 5.96652 8.2748 6.53179 8.07507 7.2988C8.07507 7.29942 8.07446 7.30005 8.07446 7.30067L14.6258 13.9989Z" fill="#34A853"/>
<path d="M32.2906 10.7303C31.1166 10.7303 30.336 9.86363 30.336 8.55441C30.336 7.29437 31.1104 6.45229 32.2844 6.45229C33.1695 6.45229 33.8518 6.96246 33.987 7.70619H33.526C33.4215 7.18988 32.9421 6.86411 32.266 6.86411C31.3747 6.86411 30.8092 7.50335 30.8092 8.56056C30.8092 9.6485 31.387 10.3185 32.3336 10.3185C33.0036 10.3185 33.4707 9.9251 33.5752 9.34732H34.03C33.9071 10.1648 33.2679 10.7303 32.2906 10.7303ZM36.5602 10.6504L35.5337 9.20595L35.085 9.2121V10.6504H34.6486V7.57711H35.085V8.82486H35.503L36.4557 7.57711H36.9966L35.9025 8.99082L37.1257 10.6504H36.5602ZM38.1661 10.7303C37.5576 10.7303 37.1519 10.3615 37.1519 9.82061C37.1519 9.2121 37.6068 8.82486 38.4857 8.82486H39.4016V8.68349C39.4016 8.09957 39.0942 7.88444 38.5656 7.88444C38.0985 7.88444 37.8649 8.06269 37.7604 8.37616H37.3302C37.4408 7.83527 37.8834 7.49721 38.5841 7.49721C39.4016 7.49721 39.8134 7.94591 39.8134 8.72652V10.6504H39.4016V10.1402C39.1864 10.509 38.7316 10.7303 38.1661 10.7303ZM37.6006 9.80831C37.6006 10.1402 37.8649 10.3431 38.3013 10.3431C38.9221 10.3431 39.3524 9.93739 39.4016 9.21824V9.2121H38.5902C37.9202 9.2121 37.6006 9.40879 37.6006 9.80831ZM42.5897 10.6504V9.13834C42.3931 9.47025 41.9812 9.67923 41.508 9.67923C40.7765 9.67923 40.3647 9.25512 40.3647 8.47451V7.57711H40.8011V8.45607C40.8011 9.02155 41.0285 9.292 41.594 9.292C41.9935 9.292 42.3931 9.05229 42.5897 8.70808V7.57711H43.0261V10.6504H42.5897ZM44.5648 10.7303C43.9562 10.7303 43.5506 10.3615 43.5506 9.82061C43.5506 9.2121 44.0054 8.82486 44.8844 8.82486H45.8002V8.68349C45.8002 8.09957 45.4929 7.88444 44.9643 7.88444C44.4971 7.88444 44.2636 8.06269 44.1591 8.37616H43.7288C43.8395 7.83527 44.282 7.49721 44.9827 7.49721C45.8002 7.49721 46.212 7.94591 46.212 8.72652V10.6504H45.8002V10.1402C45.5851 10.509 45.1302 10.7303 44.5648 10.7303ZM43.9993 9.80831C43.9993 10.1402 44.2636 10.3431 44.7 10.3431C45.3208 10.3431 45.751 9.93739 45.8002 9.21824V9.2121H44.9889C44.3189 9.2121 43.9993 9.40879 43.9993 9.80831ZM47.3347 10.6504V7.96434H46.5173V7.57711H48.5948V7.96434H47.7711V10.6504H47.3347ZM49.1807 10.6504V7.57711H49.6171V8.59129H50.2994C51.1291 8.59129 51.5778 8.99082 51.5778 9.62392C51.5778 10.2693 51.1046 10.6504 50.3301 10.6504H49.1807ZM49.6171 10.2632H50.2317C50.8095 10.2632 51.123 10.0296 51.123 9.62392C51.123 9.23054 50.8157 8.97853 50.201 8.97853H49.6171V10.2632ZM53.5025 10.6504V7.57711H54.8793C55.6476 7.57711 56.0533 7.866 56.0533 8.38231C56.0533 8.72037 55.8013 8.96623 55.4202 9.06458C55.8812 9.19366 56.1885 9.50098 56.1885 9.83904C56.1885 10.3554 55.7829 10.6504 55.1252 10.6504H53.5025ZM53.9389 10.2632H54.9777C55.494 10.2632 55.7337 10.0972 55.7337 9.74685C55.7337 9.39649 55.4141 9.22439 54.8424 9.22439H53.9389V10.2632ZM53.9389 8.88018H54.8424C55.3403 8.88018 55.5985 8.78184 55.5985 8.43148C55.5985 8.10572 55.371 7.96434 54.8424 7.96434H53.9389V8.88018Z" fill="white"/>
<path d="M68.5725 20.9465H69.6628V13.5757H68.5725V20.9465ZM78.3926 16.2307L77.1428 19.4264H77.1054L75.8083 16.2307H74.6339L76.579 20.6971L75.4706 23.1817H76.607L79.605 16.2307H78.3926ZM72.2097 20.1092C71.8521 20.1092 71.3543 19.9294 71.3543 19.483C71.3543 18.9147 71.9742 18.6965 72.51 18.6965C72.9891 18.6965 73.2153 18.8009 73.5062 18.943C73.4215 19.6257 72.839 20.1092 72.2097 20.1092ZM72.3412 16.0698C71.5518 16.0698 70.7338 16.4206 70.3961 17.1983L71.3637 17.6057C71.5705 17.1983 71.9555 17.065 72.3599 17.065C72.9237 17.065 73.4969 17.4064 73.5062 18.0137V18.0892C73.3087 17.9754 72.8863 17.805 72.3692 17.805C71.3263 17.805 70.264 18.3834 70.264 19.4642C70.264 20.4506 71.1194 21.0862 72.0777 21.0862C72.8109 21.0862 73.2153 20.7542 73.4688 20.3651H73.5062V20.9341H74.5585V18.1081C74.5585 16.7997 73.591 16.0698 72.3412 16.0698M65.6032 17.1281H64.0525V14.6016H65.6032C66.4183 14.6016 66.881 15.2826 66.881 15.8646C66.881 16.4359 66.4183 17.1281 65.6032 17.1281ZM65.5752 13.5757H62.9628V20.9465H64.0525V18.154H65.5752C66.7835 18.154 67.9713 17.2708 67.9713 15.8646C67.9713 14.4583 66.7835 13.5757 65.5752 13.5757M51.3297 20.1104C50.5766 20.1104 49.9461 19.4742 49.9461 18.6004C49.9461 17.7171 50.5766 17.0709 51.3297 17.0709C52.0735 17.0709 52.6566 17.7171 52.6566 18.6004C52.6566 19.4742 52.0735 20.1104 51.3297 20.1104ZM52.5818 16.6435H52.5438C52.299 16.3492 51.8287 16.0833 51.2356 16.0833C49.9929 16.0833 48.8541 17.1847 48.8541 18.6004C48.8541 20.006 49.9929 21.0986 51.2356 21.0986C51.8287 21.0986 52.299 20.8327 52.5438 20.5284H52.5818V20.8899C52.5818 21.8492 52.0735 22.3621 51.2543 22.3621C50.5859 22.3621 50.1716 21.8775 50.0022 21.4689L49.0516 21.868C49.3244 22.5331 50.0495 23.3497 51.2543 23.3497C52.5345 23.3497 53.6172 22.5897 53.6172 20.7377V16.2349H52.5818V16.6435ZM54.3703 20.9465H55.4623V13.5751H54.3703V20.9465ZM57.0715 18.5149C57.0434 17.5462 57.8153 17.0521 58.3703 17.0521C58.8039 17.0521 59.1708 17.2702 59.2929 17.5839L57.0715 18.5149ZM60.4603 17.6788C60.2535 17.1187 59.6225 16.0833 58.3329 16.0833C57.0528 16.0833 55.9894 17.0992 55.9894 18.591C55.9894 19.9966 57.0434 21.0986 58.4551 21.0986C59.5944 21.0986 60.2535 20.3958 60.5263 19.9872L59.6791 19.417C59.3969 19.835 59.0107 20.1104 58.4551 20.1104C57.9 20.1104 57.5044 19.8539 57.2503 19.351L60.5731 17.9636L60.4603 17.6788ZM33.9875 16.8528V17.9164H36.5099C36.4345 18.5149 36.237 18.9518 35.9361 19.2554C35.5686 19.6263 34.9943 20.0349 33.9875 20.0349C32.4339 20.0349 31.2198 18.7714 31.2198 17.2042C31.2198 15.6364 32.4339 14.3734 33.9875 14.3734C34.8254 14.3734 35.4371 14.706 35.8888 15.1335L36.6326 14.3829C36.0016 13.775 35.1643 13.3092 33.9875 13.3092C31.8602 13.3092 30.0717 15.0574 30.0717 17.2042C30.0717 19.351 31.8602 21.0986 33.9875 21.0986C35.1357 21.0986 36.0016 20.7183 36.6793 20.006C37.3764 19.3032 37.5926 18.3156 37.5926 17.5173C37.5926 17.2702 37.5739 17.0426 37.5359 16.8528H33.9875ZM40.4608 20.1104C39.7077 20.1104 39.058 19.4836 39.058 18.591C39.058 17.6883 39.7077 17.0709 40.4608 17.0709C41.2134 17.0709 41.8631 17.6883 41.8631 18.591C41.8631 19.4836 41.2134 20.1104 40.4608 20.1104ZM40.4608 16.0833C39.086 16.0833 37.9659 17.1376 37.9659 18.591C37.9659 20.0349 39.086 21.0986 40.4608 21.0986C41.8351 21.0986 42.9551 20.0349 42.9551 18.591C42.9551 17.1376 41.8351 16.0833 40.4608 16.0833ZM45.9023 20.1104C45.1491 20.1104 44.4994 19.4836 44.4994 18.591C44.4994 17.6883 45.1491 17.0709 45.9023 17.0709C46.6554 17.0709 47.3046 17.6883 47.3046 18.591C47.3046 19.4836 46.6554 20.1104 45.9023 20.1104ZM45.9023 16.0833C44.528 16.0833 43.408 17.1376 43.408 18.591C43.408 20.0349 44.528 21.0986 45.9023 21.0986C47.2765 21.0986 48.3966 20.0349 48.3966 18.591C48.3966 17.1376 47.2765 16.0833 45.9023 16.0833Z" fill="white"/>
</svg>
