<svg width="76" height="28" viewBox="0 0 76 28" fill="none" xmlns="http://www.w3.org/2000/svg">
<rect width="75.0149" height="28" rx="4.01622" fill="#0F172B"/>
<path d="M19.1811 14.5113C19.1892 13.8955 19.3567 13.2918 19.6681 12.7562C19.9794 12.2206 20.4244 11.7707 20.9618 11.4482C20.6204 10.9722 20.1701 10.5805 19.6466 10.3042C19.123 10.0279 18.5407 9.87454 17.9459 9.85637C16.677 9.72633 15.4468 10.5977 14.8002 10.5977C14.1411 10.5977 13.1455 9.86928 12.0735 9.89081C11.38 9.91269 10.7042 10.1096 10.1119 10.4622C9.51956 10.8149 9.0309 11.3114 8.69353 11.9033C7.23215 14.3735 8.32221 18.0039 9.72212 20.0007C10.4225 20.9784 11.2411 22.0706 12.3122 22.0319C13.3603 21.9894 13.7518 21.3794 15.0169 21.3794C16.2704 21.3794 16.6376 22.0319 17.7304 22.0073C18.8551 21.9894 19.5637 21.0252 20.2396 20.0381C20.7428 19.3415 21.1301 18.5715 21.387 17.7567C20.7335 17.4869 20.1759 17.0353 19.7837 16.4581C19.3914 15.881 19.1818 15.2039 19.1811 14.5113Z" fill="white"/>
<path d="M17.1176 8.54268C17.7308 7.82398 18.0329 6.9002 17.9598 5.96753C17.0229 6.0636 16.1575 6.50075 15.536 7.19188C15.2321 7.52951 14.9994 7.92231 14.8511 8.34781C14.7028 8.77331 14.6419 9.22318 14.6718 9.67169C15.1404 9.6764 15.604 9.57724 16.0276 9.38167C16.4513 9.18611 16.824 8.89924 17.1176 8.54268Z" fill="white"/>
<path d="M31.6063 11.3082C30.4323 11.3082 29.6517 10.4415 29.6517 9.1323C29.6517 7.87225 30.4262 7.03017 31.6002 7.03017C32.4853 7.03017 33.1675 7.54034 33.3027 8.28407H32.8418C32.7373 7.76776 32.2578 7.44199 31.5817 7.44199C30.6905 7.44199 30.125 8.08123 30.125 9.13844C30.125 10.2264 30.7028 10.8964 31.6493 10.8964C32.3193 10.8964 32.7864 10.503 32.8909 9.9252H33.3458C33.2228 10.7427 32.5836 11.3082 31.6063 11.3082ZM35.8759 11.2283L34.8495 9.78383L34.4008 9.78998V11.2283H33.9644V8.15499H34.4008V9.40274H34.8187L35.7715 8.15499H36.3124L35.2183 9.5687L36.4414 11.2283H35.8759ZM37.4818 11.3082C36.8733 11.3082 36.4676 10.9394 36.4676 10.3985C36.4676 9.78998 36.9225 9.40274 37.8015 9.40274H38.7173V9.26137C38.7173 8.67745 38.41 8.46232 37.8814 8.46232C37.4142 8.46232 37.1806 8.64057 37.0762 8.95405H36.6459C36.7565 8.41315 37.1991 8.07509 37.8998 8.07509C38.7173 8.07509 39.1291 8.52379 39.1291 9.3044V11.2283H38.7173V10.7181C38.5022 11.0869 38.0473 11.3082 37.4818 11.3082ZM36.9163 10.3862C36.9163 10.7181 37.1806 10.9209 37.6171 10.9209C38.2379 10.9209 38.6681 10.5153 38.7173 9.79612V9.78998H37.9059C37.236 9.78998 36.9163 9.98667 36.9163 10.3862ZM41.9055 11.2283V9.71622C41.7088 10.0481 41.297 10.2571 40.8237 10.2571C40.0922 10.2571 39.6804 9.833 39.6804 9.05239V8.15499H40.1168V9.03395C40.1168 9.59943 40.3443 9.86988 40.9097 9.86988C41.3093 9.86988 41.7088 9.63017 41.9055 9.28596V8.15499H42.3419V11.2283H41.9055ZM43.8805 11.3082C43.272 11.3082 42.8663 10.9394 42.8663 10.3985C42.8663 9.78998 43.3212 9.40274 44.2001 9.40274H45.116V9.26137C45.116 8.67745 44.8086 8.46232 44.28 8.46232C43.8129 8.46232 43.5793 8.64057 43.4748 8.95405H43.0446C43.1552 8.41315 43.5978 8.07509 44.2985 8.07509C45.116 8.07509 45.5278 8.52379 45.5278 9.3044V11.2283H45.116V10.7181C44.9008 11.0869 44.446 11.3082 43.8805 11.3082ZM43.315 10.3862C43.315 10.7181 43.5793 10.9209 44.0157 10.9209C44.6365 10.9209 45.0668 10.5153 45.116 9.79612V9.78998H44.3046C43.6346 9.78998 43.315 9.98667 43.315 10.3862ZM46.6505 11.2283V8.54223H45.833V8.15499H47.9105V8.54223H47.0869V11.2283H46.6505ZM48.4964 11.2283V8.15499H48.9328V9.16917H49.6151C50.4449 9.16917 50.8936 9.5687 50.8936 10.2018C50.8936 10.8472 50.4203 11.2283 49.6458 11.2283H48.4964ZM48.9328 10.841H49.5475C50.1253 10.841 50.4387 10.6075 50.4387 10.2018C50.4387 9.80842 50.1314 9.55641 49.5167 9.55641H48.9328V10.841ZM52.8182 11.2283V8.15499H54.195C54.9634 8.15499 55.369 8.44388 55.369 8.96019C55.369 9.29825 55.117 9.54411 54.7359 9.64246C55.1969 9.77154 55.5043 10.0789 55.5043 10.4169C55.5043 10.9332 55.0986 11.2283 54.4409 11.2283H52.8182ZM53.2546 10.841H54.2934C54.8097 10.841 55.0494 10.6751 55.0494 10.3247C55.0494 9.97437 54.7298 9.80227 54.1582 9.80227H53.2546V10.841ZM53.2546 9.45806H54.1582C54.656 9.45806 54.9142 9.35972 54.9142 9.00936C54.9142 8.6836 54.6868 8.54223 54.1582 8.54223H53.2546V9.45806Z" fill="white"/>
<path d="M30.4273 21.1916H29.3874L31.5033 15.0466H32.6467L34.7581 21.1916H33.6777L33.1329 19.4899H30.9766L30.4273 21.1916ZM32.0795 16.109H32.039L31.2061 18.7066H32.9034L32.0795 16.109Z" fill="white"/>
<path d="M37.6282 21.2591C37.0114 21.2591 36.5432 20.9665 36.2911 20.5298H36.2551V22.7718H35.2557V16.4331H36.2281V17.1309H36.2641C36.5252 16.6762 37.0114 16.3701 37.6507 16.3701C38.7176 16.3701 39.4784 17.1759 39.4784 18.5985V19.0217C39.4784 20.4353 38.7266 21.2591 37.6282 21.2591ZM37.3986 20.4353C38.0333 20.4353 38.4655 19.9266 38.4655 18.9677V18.6345C38.4655 17.7117 38.0604 17.1849 37.3806 17.1849C36.6828 17.1849 36.2461 17.7522 36.2461 18.63V18.9677C36.2461 19.8681 36.6873 20.4353 37.3986 20.4353Z" fill="white"/>
<path d="M42.7087 21.2591C42.0919 21.2591 41.6237 20.9665 41.3716 20.5298H41.3356V22.7718H40.3362V16.4331H41.3086V17.1309H41.3446C41.6057 16.6762 42.0919 16.3701 42.7312 16.3701C43.7981 16.3701 44.5589 17.1759 44.5589 18.5985V19.0217C44.5589 20.4353 43.8071 21.2591 42.7087 21.2591ZM42.4791 20.4353C43.1138 20.4353 43.546 19.9266 43.546 18.9677V18.6345C43.546 17.7117 43.1408 17.1849 42.4611 17.1849C41.7633 17.1849 41.3266 17.7522 41.3266 18.63V18.9677C41.3266 19.8681 41.7678 20.4353 42.4791 20.4353Z" fill="white"/>
<path d="M46.63 19.4854H47.6294C47.6744 20.0166 48.1426 20.4713 49.0115 20.4713C49.8083 20.4713 50.281 20.0977 50.281 19.5169C50.281 19.0487 49.9659 18.7966 49.3086 18.6391L48.3002 18.3869C47.5079 18.2024 46.7966 17.7297 46.7966 16.7303C46.7966 15.5553 47.823 14.9115 49.016 14.9115C50.209 14.9115 51.2039 15.5553 51.2264 16.7032H50.245C50.2 16.181 49.7993 15.7488 49.0025 15.7488C48.3002 15.7488 47.823 16.082 47.823 16.6537C47.823 17.0544 48.1021 17.3425 48.6739 17.4731L49.6778 17.7207C50.6007 17.9458 51.303 18.3824 51.303 19.4269C51.303 20.6334 50.326 21.3132 48.935 21.3132C47.2243 21.3132 46.6525 20.3137 46.63 19.4854Z" fill="white"/>
<path d="M52.5208 16.4331V15.2762H53.5022V16.4331H54.4296V17.2345H53.5022V19.7735C53.5022 20.2912 53.6958 20.4353 54.2315 20.4353C54.3171 20.4353 54.3981 20.4353 54.4566 20.4263V21.1916C54.3756 21.2051 54.1865 21.2231 53.9839 21.2231C52.8269 21.2231 52.5073 20.809 52.5073 19.8546V17.2345H51.85V16.4331H52.5208Z" fill="white"/>
<path d="M57.1286 16.3521C58.4972 16.3521 59.24 17.3155 59.24 18.612V18.9947C59.24 20.3363 58.5017 21.2726 57.1286 21.2726C55.7555 21.2726 55.0082 20.3363 55.0082 18.9947V18.612C55.0082 17.32 55.76 16.3521 57.1286 16.3521ZM57.1286 17.1534C56.3858 17.1534 56.0166 17.7612 56.0166 18.6255V18.9902C56.0166 19.8411 56.3813 20.4668 57.1286 20.4668C57.8759 20.4668 58.2361 19.8456 58.2361 18.9902V18.6255C58.2361 17.7567 57.8714 17.1534 57.1286 17.1534Z" fill="white"/>
<path d="M60.0842 21.1916V16.4331H61.0836V17.0589H61.1196C61.2412 16.7618 61.5968 16.3656 62.2586 16.3656C62.3891 16.3656 62.5017 16.3746 62.5962 16.3926V17.275C62.5107 17.2525 62.3351 17.239 62.1686 17.239C61.3672 17.239 61.0971 17.7342 61.0971 18.3734V21.1916H60.0842Z" fill="white"/>
<path d="M65.0206 21.2726C63.7466 21.2726 62.9362 20.4308 62.9362 19.0217V18.54C62.9362 17.212 63.7286 16.3521 64.9801 16.3521C66.2496 16.3521 67.0149 17.2435 67.0149 18.585V19.0397H63.9221V19.1523C63.9221 19.9536 64.3543 20.4848 65.0341 20.4848C65.5428 20.4848 65.8895 20.2327 66.011 19.823H66.9609C66.8168 20.5929 66.1956 21.2726 65.0206 21.2726ZM63.9221 18.3419H66.038V18.3329C66.038 17.6576 65.6193 17.1264 64.9846 17.1264C64.3408 17.1264 63.9221 17.6576 63.9221 18.3329V18.3419Z" fill="white"/>
</svg>
