<svg width="40" height="40" viewBox="0 0 40 40" fill="none" xmlns="http://www.w3.org/2000/svg">
<rect width="40" height="40" rx="8" fill="#FEF9C2"/>
<path d="M14.5187 9.16675C14.9692 9.16675 15.3344 9.51798 15.3344 9.95123V11.5337C16.058 11.5202 16.8691 11.5202 17.7816 11.5202H22.1322C23.0447 11.5202 23.8558 11.5202 24.5793 11.5337V9.95123C24.5793 9.51798 24.9445 9.16675 25.3951 9.16675C25.8455 9.16675 26.2108 9.51798 26.2108 9.95123V11.6031C27.7762 11.7237 28.804 12.0195 29.559 12.7456C30.3141 13.4718 30.6217 14.4601 30.7471 15.9656L30.8334 16.7501H10.1684H9.16675V15.9656C9.2921 14.4601 9.59976 13.4718 10.3548 12.7456C11.1098 12.0195 12.1375 11.7237 13.703 11.6031V9.95123C13.703 9.51798 14.0682 9.16675 14.5187 9.16675Z" fill="#EFB100"/>
<path opacity="0.5" d="M30.8328 22.1668V20.0001C30.8328 19.0911 30.8293 17.4707 30.8154 16.75H9.17662C9.16263 17.4707 9.16617 19.0911 9.16617 20.0001V22.1668C9.16617 26.2522 9.16617 28.295 10.4354 29.5642C11.7046 30.8334 13.7473 30.8334 17.8328 30.8334H22.1661C26.2517 30.8334 28.2944 30.8334 29.5637 29.5642C30.8328 28.295 30.8328 26.2522 30.8328 22.1668Z" fill="#EFB100"/>
</svg>
