<svg width="62" height="20" viewBox="0 0 62 20" fill="none" xmlns="http://www.w3.org/2000/svg">
<path d="M61.3953 1.32161V14.7616H59.4512V1.32161H61.3953Z" fill="#2C2D2E"/>
<path d="M56.8553 5.24167V14.7617H54.9112V5.24167H56.8553ZM57.2256 2.38567C57.2256 3.095 56.6516 3.74833 55.8925 3.74833C55.1704 3.74833 54.5409 3.151 54.5409 2.38567C54.5409 1.639 55.1704 1.04167 55.8925 1.04167C56.6516 1.04167 57.2256 1.695 57.2256 2.38567Z" fill="#2C2D2E"/>
<path fill-rule="evenodd" clip-rule="evenodd" d="M47.2367 4.99902C44.4915 4.99902 42.2818 7.2702 42.2818 10.0519C42.2818 12.8336 44.4915 15.1048 47.2367 15.1048C48.4981 15.1048 49.6465 14.6253 50.5193 13.8371L50.9461 14.7603H52.4193V5.22867H50.9461L50.491 6.24126C49.6217 5.4682 48.4845 4.99902 47.2367 4.99902ZM47.3507 6.89327C45.6571 6.89327 44.2683 8.29854 44.2683 10.0519C44.2683 11.8053 45.6571 13.2105 47.3507 13.2105C49.0442 13.2105 50.433 11.8053 50.433 10.0519C50.433 8.29854 49.0442 6.89327 47.3507 6.89327Z" fill="#2C2D2E"/>
<path d="M30.1307 6.959C28.8161 6.959 27.7978 7.967 27.7978 9.311V14.7617H25.8537V5.24169H27.344L27.7978 6.11902C28.4643 5.39102 29.4271 4.99902 30.464 4.99902C31.686 4.99902 32.7043 5.54036 33.3894 6.47369C34.167 5.55902 35.3335 4.99902 36.6666 4.99902C39.055 4.99902 40.6473 6.77234 40.6473 9.311V14.7617H38.7032V9.38567C38.7032 7.92967 37.8515 6.959 36.5555 6.959C35.2409 6.959 34.2226 7.967 34.2226 9.311V14.7617H32.2785V9.38567C32.2785 7.92967 31.4268 6.959 30.1307 6.959Z" fill="#2C2D2E"/>
<path d="M13.2979 10C13.2979 11.6587 11.9594 13.0081 10.3142 13.0081C8.6689 13.0081 7.33045 11.6587 7.33045 10C7.33045 8.34127 8.6689 6.99187 10.3142 6.99187C11.9594 6.99187 13.2979 8.34127 13.2979 10ZM10.3142 0C4.84517 0 0.395325 4.48625 0.395325 10C0.395325 15.5137 4.84517 20 10.3142 20C12.3178 20 14.2501 19.3987 15.9016 18.2606L15.9301 18.2406L14.5936 16.6744L14.5712 16.6894C13.2997 17.5137 11.8274 17.95 10.3142 17.95C5.966 17.95 2.42869 14.3837 2.42869 10C2.42869 5.61625 5.966 2.05 10.3142 2.05C14.6623 2.05 18.1997 5.61625 18.1997 10C18.1997 10.5681 18.137 11.1431 18.0137 11.7087C17.7645 12.7406 17.0478 13.0569 16.5098 13.015C15.9685 12.9706 15.3356 12.5819 15.3313 11.6306V10C15.3313 7.2106 13.0809 4.94187 10.3142 4.94187C7.54741 4.94187 5.29709 7.2106 5.29709 10C5.29709 12.7894 7.54741 15.0581 10.3142 15.0581C11.6582 15.0581 12.9185 14.5281 13.8688 13.565C14.4212 14.4319 15.3219 14.9756 16.3467 15.0581C16.4347 15.0656 16.5246 15.0694 16.6139 15.0694C17.3349 15.0694 18.0503 14.8263 18.6268 14.3844C19.2213 13.9294 19.6652 13.2713 19.9107 12.4806C19.9497 12.3531 20.0216 12.0606 20.0223 12.0587L20.0241 12.0481C20.1686 11.4137 20.233 10.7813 20.233 10C20.233 4.48625 15.7832 0 10.3142 0Z" fill="#0077FF"/>
</svg>
