<svg width="40" height="40" viewBox="0 0 40 40" fill="none" xmlns="http://www.w3.org/2000/svg">
<rect width="40" height="40" rx="8" fill="#E0E7FF"/>
<path fill-rule="evenodd" clip-rule="evenodd" d="M18.0675 31.353L18.3655 30.8496C18.843 30.0428 19.0818 29.6394 19.4622 29.4144C19.8426 29.1894 20.3387 29.1734 21.331 29.1417C22.2615 29.112 22.8869 29.0308 23.4215 28.8093C24.5473 28.343 25.4417 27.4486 25.908 26.3229C26.2578 25.4785 26.2578 24.4082 26.2578 22.2674V21.3485C26.2578 18.3407 26.2578 16.8367 25.5807 15.7319C25.2019 15.1137 24.6821 14.5939 24.0639 14.2151C22.9592 13.5381 21.4552 13.5381 18.4473 13.5381H15.6907C12.6828 13.5381 11.1789 13.5381 10.0741 14.2151C9.45587 14.5939 8.93611 15.1137 8.55728 15.7319C7.88025 16.8367 7.88025 18.3407 7.88025 21.3485V22.2674C7.88025 24.4082 7.88025 25.4785 8.22997 26.3229C8.69628 27.4486 9.59068 28.343 10.7164 28.8093C11.2511 29.0308 11.8765 29.112 12.8069 29.1417C13.7992 29.1734 14.2954 29.1894 14.6758 29.4144C15.0561 29.6394 15.2949 30.0428 15.7725 30.8496L16.0705 31.353C16.5144 32.1031 17.6235 32.1031 18.0675 31.353ZM21.0891 22.7269C21.7234 22.7269 22.2377 22.2126 22.2377 21.5782C22.2377 20.9439 21.7234 20.4296 21.0891 20.4296C20.4547 20.4296 19.9405 20.9439 19.9405 21.5782C19.9405 22.2126 20.4547 22.7269 21.0891 22.7269ZM18.2176 21.5782C18.2176 22.2126 17.7034 22.7269 17.069 22.7269C16.4346 22.7269 15.9204 22.2126 15.9204 21.5782C15.9204 20.9439 16.4346 20.4296 17.069 20.4296C17.7034 20.4296 18.2176 20.9439 18.2176 21.5782ZM13.0489 22.7269C13.6833 22.7269 14.1975 22.2126 14.1975 21.5782C14.1975 20.9439 13.6833 20.4296 13.0489 20.4296C12.4146 20.4296 11.9003 20.9439 11.9003 21.5782C11.9003 22.2126 12.4146 22.7269 13.0489 22.7269Z" fill="#615FFF"/>
<path opacity="0.5" d="M23.5733 8.08325C24.9458 8.08324 26.0372 8.08324 26.9125 8.16646C27.8099 8.2518 28.5688 8.43067 29.2448 8.84491C29.9403 9.27111 30.525 9.85583 30.9512 10.5513C31.3654 11.2273 31.5443 11.9861 31.6297 12.8836C31.7129 13.7589 31.7129 14.8504 31.7129 16.2228V17.1602C31.7129 18.1369 31.7129 18.9139 31.6698 19.5438C31.6259 20.1884 31.5341 20.7418 31.3194 21.2601C30.7948 22.5266 29.7886 23.5328 28.5221 24.0573C28.4905 24.0704 28.4586 24.0831 28.4267 24.0954C28.2738 24.1537 28.1427 24.2039 28.0278 24.2412H26.2402C26.2577 23.7006 26.2577 23.0568 26.2577 22.2673V21.3485C26.2577 18.3406 26.2577 16.8367 25.5806 15.7318C25.2018 15.1136 24.682 14.5939 24.0639 14.215C22.9591 13.538 21.4551 13.538 18.4472 13.538H15.6906C14.6231 13.538 13.745 13.538 13.007 13.5683V11.7803C13.0424 11.6575 13.0909 11.5168 13.1479 11.3516C13.2449 11.0706 13.3674 10.8048 13.5227 10.5513C13.9489 9.85583 14.5336 9.27111 15.2291 8.84491C15.9051 8.43067 16.6639 8.2518 17.5614 8.16646C18.4367 8.08324 19.5281 8.08324 20.9005 8.08325H23.5733Z" fill="#615FFF"/>
</svg>
