<svg width="40" height="40" viewBox="0 0 40 40" fill="none" xmlns="http://www.w3.org/2000/svg">
<rect width="40" height="40" rx="8" fill="#DBEAFE"/>
<path d="M14.737 27.5515C12.6173 27.4745 11.3331 27.2115 10.4357 26.3141C9.1665 25.045 9.1665 23.0021 9.1665 18.9167C9.1665 14.8312 9.1665 12.7884 10.4357 11.5192C11.7049 10.25 13.7477 10.25 17.8332 10.25H22.1665C26.252 10.25 28.2948 10.25 29.5639 11.5192C30.8332 12.7884 30.8332 14.8312 30.8332 18.9167C30.8332 23.0021 30.8332 25.045 29.5639 26.3141C28.6885 27.1896 27.4448 27.4612 25.4165 27.5454" fill="#2B7FFF"/>
<path opacity="0.5" d="M17.7792 24.3874C18.7879 23.3787 19.2922 22.8745 19.9149 22.8416C19.9719 22.8386 20.0288 22.8386 20.0858 22.8416C20.7085 22.8745 21.2128 23.3787 22.2215 24.3874C24.4161 26.5821 25.5134 27.6794 25.2063 28.6262C25.1799 28.7076 25.1471 28.7867 25.1082 28.8629C24.656 29.7496 23.1041 29.7496 20.0004 29.7496C16.8966 29.7496 15.3448 29.7496 14.8925 28.8629C14.8537 28.7867 14.8209 28.7076 14.7945 28.6262C14.4872 27.6794 15.5846 26.5821 17.7792 24.3874Z" stroke="#2B7FFF" stroke-width="1.625"/>
<path d="M18.9165 15.6667L20.1418 16.7695C21.2558 17.7721 21.8128 18.2735 21.8128 18.9168C21.8128 19.56 21.2558 20.0614 20.1418 21.0641L18.9165 22.1667" stroke="#BEDBFF" stroke-width="1.08333" stroke-linecap="round"/>
</svg>
