<svg width="71" height="71" viewBox="0 0 71 71" fill="none" xmlns="http://www.w3.org/2000/svg">
<g clip-path="url(#clip0_3635_8320)">
<rect width="71" height="71" fill="white"/>
<g clip-path="url(#clip1_3635_8320)">
<path d="M71 0H0V71H71V0Z" fill="white"/>
<path d="M2.62964 2.62964H5.25927V5.25927H2.62964V2.62964ZM5.25927 2.62964H7.8889V5.25927H5.25927V2.62964ZM7.8889 2.62964H10.5185V5.25927H7.8889V2.62964ZM10.5185 2.62964H13.1482V5.25927H10.5185V2.62964ZM13.1482 2.62964H15.7778V5.25927H13.1482V2.62964ZM15.7778 2.62964H18.4074V5.25927H15.7778V2.62964ZM18.4074 2.62964H21.0371V5.25927H18.4074V2.62964ZM23.6667 2.62964H26.2963V5.25927H23.6667V2.62964ZM28.9259 2.62964H31.5556V5.25927H28.9259V2.62964ZM34.1852 2.62964H36.8148V5.25927H34.1852V2.62964ZM36.8148 2.62964H39.4445V5.25927H36.8148V2.62964ZM44.7037 2.62964H47.3334V5.25927H44.7037V2.62964ZM49.963 2.62964H52.5926V5.25927H49.963V2.62964ZM52.5926 2.62964H55.2222V5.25927H52.5926V2.62964ZM55.2222 2.62964H57.8519V5.25927H55.2222V2.62964ZM57.8519 2.62964H60.4815V5.25927H57.8519V2.62964ZM60.4815 2.62964H63.1111V5.25927H60.4815V2.62964ZM63.1111 2.62964H65.7408V5.25927H63.1111V2.62964ZM65.7408 2.62964H68.3704V5.25927H65.7408V2.62964ZM2.62964 5.25927H5.25927V7.8889H2.62964V5.25927ZM18.4074 5.25927H21.0371V7.8889H18.4074V5.25927ZM26.2963 5.25927H28.9259V7.8889H26.2963V5.25927ZM28.9259 5.25927H31.5556V7.8889H28.9259V5.25927ZM31.5556 5.25927H34.1852V7.8889H31.5556V5.25927ZM34.1852 5.25927H36.8148V7.8889H34.1852V5.25927ZM36.8148 5.25927H39.4445V7.8889H36.8148V5.25927ZM49.963 5.25927H52.5926V7.8889H49.963V5.25927ZM65.7408 5.25927H68.3704V7.8889H65.7408V5.25927ZM2.62964 7.8889H5.25927V10.5185H2.62964V7.8889ZM7.8889 7.8889H10.5185V10.5185H7.8889V7.8889ZM10.5185 7.8889H13.1482V10.5185H10.5185V7.8889ZM13.1482 7.8889H15.7778V10.5185H13.1482V7.8889ZM18.4074 7.8889H21.0371V10.5185H18.4074V7.8889ZM23.6667 7.8889H26.2963V10.5185H23.6667V7.8889ZM26.2963 7.8889H28.9259V10.5185H26.2963V7.8889ZM28.9259 7.8889H31.5556V10.5185H28.9259V7.8889ZM36.8148 7.8889H39.4445V10.5185H36.8148V7.8889ZM39.4445 7.8889H42.0741V10.5185H39.4445V7.8889ZM49.963 7.8889H52.5926V10.5185H49.963V7.8889ZM55.2222 7.8889H57.8519V10.5185H55.2222V7.8889ZM57.8519 7.8889H60.4815V10.5185H57.8519V7.8889ZM60.4815 7.8889H63.1111V10.5185H60.4815V7.8889ZM65.7408 7.8889H68.3704V10.5185H65.7408V7.8889ZM2.62964 10.5185H5.25927V13.1482H2.62964V10.5185ZM7.8889 10.5185H10.5185V13.1482H7.8889V10.5185ZM10.5185 10.5185H13.1482V13.1482H10.5185V10.5185ZM13.1482 10.5185H15.7778V13.1482H13.1482V10.5185ZM18.4074 10.5185H21.0371V13.1482H18.4074V10.5185ZM23.6667 10.5185H26.2963V13.1482H23.6667V10.5185ZM26.2963 10.5185H28.9259V13.1482H26.2963V10.5185ZM28.9259 10.5185H31.5556V13.1482H28.9259V10.5185ZM34.1852 10.5185H36.8148V13.1482H34.1852V10.5185ZM36.8148 10.5185H39.4445V13.1482H36.8148V10.5185ZM42.0741 10.5185H44.7037V13.1482H42.0741V10.5185ZM44.7037 10.5185H47.3334V13.1482H44.7037V10.5185ZM49.963 10.5185H52.5926V13.1482H49.963V10.5185ZM55.2222 10.5185H57.8519V13.1482H55.2222V10.5185ZM57.8519 10.5185H60.4815V13.1482H57.8519V10.5185ZM60.4815 10.5185H63.1111V13.1482H60.4815V10.5185ZM65.7408 10.5185H68.3704V13.1482H65.7408V10.5185ZM2.62964 13.1482H5.25927V15.7778H2.62964V13.1482ZM7.8889 13.1482H10.5185V15.7778H7.8889V13.1482ZM10.5185 13.1482H13.1482V15.7778H10.5185V13.1482ZM13.1482 13.1482H15.7778V15.7778H13.1482V13.1482ZM18.4074 13.1482H21.0371V15.7778H18.4074V13.1482ZM23.6667 13.1482H26.2963V15.7778H23.6667V13.1482ZM31.5556 13.1482H34.1852V15.7778H31.5556V13.1482ZM34.1852 13.1482H36.8148V15.7778H34.1852V13.1482ZM36.8148 13.1482H39.4445V15.7778H36.8148V13.1482ZM39.4445 13.1482H42.0741V15.7778H39.4445V13.1482ZM42.0741 13.1482H44.7037V15.7778H42.0741V13.1482ZM44.7037 13.1482H47.3334V15.7778H44.7037V13.1482ZM49.963 13.1482H52.5926V15.7778H49.963V13.1482ZM55.2222 13.1482H57.8519V15.7778H55.2222V13.1482ZM57.8519 13.1482H60.4815V15.7778H57.8519V13.1482ZM60.4815 13.1482H63.1111V15.7778H60.4815V13.1482ZM65.7408 13.1482H68.3704V15.7778H65.7408V13.1482ZM2.62964 15.7778H5.25927V18.4074H2.62964V15.7778ZM18.4074 15.7778H21.0371V18.4074H18.4074V15.7778ZM28.9259 15.7778H31.5556V18.4074H28.9259V15.7778ZM31.5556 15.7778H34.1852V18.4074H31.5556V15.7778ZM39.4445 15.7778H42.0741V18.4074H39.4445V15.7778ZM44.7037 15.7778H47.3334V18.4074H44.7037V15.7778ZM49.963 15.7778H52.5926V18.4074H49.963V15.7778ZM65.7408 15.7778H68.3704V18.4074H65.7408V15.7778ZM2.62964 18.4074H5.25927V21.0371H2.62964V18.4074ZM5.25927 18.4074H7.8889V21.0371H5.25927V18.4074ZM7.8889 18.4074H10.5185V21.0371H7.8889V18.4074ZM10.5185 18.4074H13.1482V21.0371H10.5185V18.4074ZM13.1482 18.4074H15.7778V21.0371H13.1482V18.4074ZM15.7778 18.4074H18.4074V21.0371H15.7778V18.4074ZM18.4074 18.4074H21.0371V21.0371H18.4074V18.4074ZM23.6667 18.4074H26.2963V21.0371H23.6667V18.4074ZM28.9259 18.4074H31.5556V21.0371H28.9259V18.4074ZM34.1852 18.4074H36.8148V21.0371H34.1852V18.4074ZM39.4445 18.4074H42.0741V21.0371H39.4445V18.4074ZM44.7037 18.4074H47.3334V21.0371H44.7037V18.4074ZM49.963 18.4074H52.5926V21.0371H49.963V18.4074ZM52.5926 18.4074H55.2222V21.0371H52.5926V18.4074ZM55.2222 18.4074H57.8519V21.0371H55.2222V18.4074ZM57.8519 18.4074H60.4815V21.0371H57.8519V18.4074ZM60.4815 18.4074H63.1111V21.0371H60.4815V18.4074ZM63.1111 18.4074H65.7408V21.0371H63.1111V18.4074ZM65.7408 18.4074H68.3704V21.0371H65.7408V18.4074ZM28.9259 21.0371H31.5556V23.6667H28.9259V21.0371ZM34.1852 21.0371H36.8148V23.6667H34.1852V21.0371ZM42.0741 21.0371H44.7037V23.6667H42.0741V21.0371ZM44.7037 21.0371H47.3334V23.6667H44.7037V21.0371ZM2.62964 23.6667H5.25927V26.2963H2.62964V23.6667ZM5.25927 23.6667H7.8889V26.2963H5.25927V23.6667ZM7.8889 23.6667H10.5185V26.2963H7.8889V23.6667ZM10.5185 23.6667H13.1482V26.2963H10.5185V23.6667ZM18.4074 23.6667H21.0371V26.2963H18.4074V23.6667ZM23.6667 23.6667H26.2963V26.2963H23.6667V23.6667ZM28.9259 23.6667H31.5556V26.2963H28.9259V23.6667ZM31.5556 23.6667H34.1852V26.2963H31.5556V23.6667ZM34.1852 23.6667H36.8148V26.2963H34.1852V23.6667ZM42.0741 23.6667H44.7037V26.2963H42.0741V23.6667ZM44.7037 23.6667H47.3334V26.2963H44.7037V23.6667ZM47.3334 23.6667H49.963V26.2963H47.3334V23.6667ZM55.2222 23.6667H57.8519V26.2963H55.2222V23.6667ZM57.8519 23.6667H60.4815V26.2963H57.8519V23.6667ZM60.4815 23.6667H63.1111V26.2963H60.4815V23.6667ZM65.7408 23.6667H68.3704V26.2963H65.7408V23.6667ZM2.62964 26.2963H5.25927V28.9259H2.62964V26.2963ZM10.5185 26.2963H13.1482V28.9259H10.5185V26.2963ZM13.1482 26.2963H15.7778V28.9259H13.1482V26.2963ZM15.7778 26.2963H18.4074V28.9259H15.7778V26.2963ZM23.6667 26.2963H26.2963V28.9259H23.6667V26.2963ZM28.9259 26.2963H31.5556V28.9259H28.9259V26.2963ZM34.1852 26.2963H36.8148V28.9259H34.1852V26.2963ZM39.4445 26.2963H42.0741V28.9259H39.4445V26.2963ZM52.5926 26.2963H55.2222V28.9259H52.5926V26.2963ZM63.1111 26.2963H65.7408V28.9259H63.1111V26.2963ZM7.8889 28.9259H10.5185V31.5556H7.8889V28.9259ZM10.5185 28.9259H13.1482V31.5556H10.5185V28.9259ZM18.4074 28.9259H21.0371V31.5556H18.4074V28.9259ZM23.6667 28.9259H26.2963V31.5556H23.6667V28.9259ZM26.2963 28.9259H28.9259V31.5556H26.2963V28.9259ZM28.9259 28.9259H31.5556V31.5556H28.9259V28.9259ZM31.5556 28.9259H34.1852V31.5556H31.5556V28.9259ZM34.1852 28.9259H36.8148V31.5556H34.1852V28.9259ZM36.8148 28.9259H39.4445V31.5556H36.8148V28.9259ZM39.4445 28.9259H42.0741V31.5556H39.4445V28.9259ZM44.7037 28.9259H47.3334V31.5556H44.7037V28.9259ZM49.963 28.9259H52.5926V31.5556H49.963V28.9259ZM52.5926 28.9259H55.2222V31.5556H52.5926V28.9259ZM5.25927 31.5556H7.8889V34.1852H5.25927V31.5556ZM7.8889 31.5556H10.5185V34.1852H7.8889V31.5556ZM13.1482 31.5556H15.7778V34.1852H13.1482V31.5556ZM21.0371 31.5556H23.6667V34.1852H21.0371V31.5556ZM26.2963 31.5556H28.9259V34.1852H26.2963V31.5556ZM28.9259 31.5556H31.5556V34.1852H28.9259V31.5556ZM36.8148 31.5556H39.4445V34.1852H36.8148V31.5556ZM42.0741 31.5556H44.7037V34.1852H42.0741V31.5556ZM44.7037 31.5556H47.3334V34.1852H44.7037V31.5556ZM49.963 31.5556H52.5926V34.1852H49.963V31.5556ZM55.2222 31.5556H57.8519V34.1852H55.2222V31.5556ZM57.8519 31.5556H60.4815V34.1852H57.8519V31.5556ZM60.4815 31.5556H63.1111V34.1852H60.4815V31.5556ZM5.25927 34.1852H7.8889V36.8148H5.25927V34.1852ZM13.1482 34.1852H15.7778V36.8148H13.1482V34.1852ZM15.7778 34.1852H18.4074V36.8148H15.7778V34.1852ZM18.4074 34.1852H21.0371V36.8148H18.4074V34.1852ZM26.2963 34.1852H28.9259V36.8148H26.2963V34.1852ZM28.9259 34.1852H31.5556V36.8148H28.9259V34.1852ZM34.1852 34.1852H36.8148V36.8148H34.1852V34.1852ZM36.8148 34.1852H39.4445V36.8148H36.8148V34.1852ZM47.3334 34.1852H49.963V36.8148H47.3334V34.1852ZM49.963 34.1852H52.5926V36.8148H49.963V34.1852ZM55.2222 34.1852H57.8519V36.8148H55.2222V34.1852ZM60.4815 34.1852H63.1111V36.8148H60.4815V34.1852ZM63.1111 34.1852H65.7408V36.8148H63.1111V34.1852ZM65.7408 34.1852H68.3704V36.8148H65.7408V34.1852ZM7.8889 36.8148H10.5185V39.4445H7.8889V36.8148ZM15.7778 36.8148H18.4074V39.4445H15.7778V36.8148ZM26.2963 36.8148H28.9259V39.4445H26.2963V36.8148ZM31.5556 36.8148H34.1852V39.4445H31.5556V36.8148ZM34.1852 36.8148H36.8148V39.4445H34.1852V36.8148ZM36.8148 36.8148H39.4445V39.4445H36.8148V36.8148ZM42.0741 36.8148H44.7037V39.4445H42.0741V36.8148ZM44.7037 36.8148H47.3334V39.4445H44.7037V36.8148ZM47.3334 36.8148H49.963V39.4445H47.3334V36.8148ZM49.963 36.8148H52.5926V39.4445H49.963V36.8148ZM52.5926 36.8148H55.2222V39.4445H52.5926V36.8148ZM55.2222 36.8148H57.8519V39.4445H55.2222V36.8148ZM65.7408 36.8148H68.3704V39.4445H65.7408V36.8148ZM5.25927 39.4445H7.8889V42.0741H5.25927V39.4445ZM7.8889 39.4445H10.5185V42.0741H7.8889V39.4445ZM13.1482 39.4445H15.7778V42.0741H13.1482V39.4445ZM15.7778 39.4445H18.4074V42.0741H15.7778V39.4445ZM18.4074 39.4445H21.0371V42.0741H18.4074V39.4445ZM21.0371 39.4445H23.6667V42.0741H21.0371V39.4445ZM28.9259 39.4445H31.5556V42.0741H28.9259V39.4445ZM31.5556 39.4445H34.1852V42.0741H31.5556V39.4445ZM36.8148 39.4445H39.4445V42.0741H36.8148V39.4445ZM44.7037 39.4445H47.3334V42.0741H44.7037V39.4445ZM47.3334 39.4445H49.963V42.0741H47.3334V39.4445ZM55.2222 39.4445H57.8519V42.0741H55.2222V39.4445ZM60.4815 39.4445H63.1111V42.0741H60.4815V39.4445ZM63.1111 39.4445H65.7408V42.0741H63.1111V39.4445ZM2.62964 42.0741H5.25927V44.7037H2.62964V42.0741ZM10.5185 42.0741H13.1482V44.7037H10.5185V42.0741ZM31.5556 42.0741H34.1852V44.7037H31.5556V42.0741ZM44.7037 42.0741H47.3334V44.7037H44.7037V42.0741ZM47.3334 42.0741H49.963V44.7037H47.3334V42.0741ZM49.963 42.0741H52.5926V44.7037H49.963V42.0741ZM52.5926 42.0741H55.2222V44.7037H52.5926V42.0741ZM55.2222 42.0741H57.8519V44.7037H55.2222V42.0741ZM65.7408 42.0741H68.3704V44.7037H65.7408V42.0741ZM13.1482 44.7037H15.7778V47.3334H13.1482V44.7037ZM18.4074 44.7037H21.0371V47.3334H18.4074V44.7037ZM21.0371 44.7037H23.6667V47.3334H21.0371V44.7037ZM23.6667 44.7037H26.2963V47.3334H23.6667V44.7037ZM26.2963 44.7037H28.9259V47.3334H26.2963V44.7037ZM28.9259 44.7037H31.5556V47.3334H28.9259V44.7037ZM36.8148 44.7037H39.4445V47.3334H36.8148V44.7037ZM42.0741 44.7037H44.7037V47.3334H42.0741V44.7037ZM44.7037 44.7037H47.3334V47.3334H44.7037V44.7037ZM47.3334 44.7037H49.963V47.3334H47.3334V44.7037ZM49.963 44.7037H52.5926V47.3334H49.963V44.7037ZM52.5926 44.7037H55.2222V47.3334H52.5926V44.7037ZM55.2222 44.7037H57.8519V47.3334H55.2222V44.7037ZM57.8519 44.7037H60.4815V47.3334H57.8519V44.7037ZM60.4815 44.7037H63.1111V47.3334H60.4815V44.7037ZM63.1111 44.7037H65.7408V47.3334H63.1111V44.7037ZM65.7408 44.7037H68.3704V47.3334H65.7408V44.7037ZM23.6667 47.3334H26.2963V49.963H23.6667V47.3334ZM26.2963 47.3334H28.9259V49.963H26.2963V47.3334ZM28.9259 47.3334H31.5556V49.963H28.9259V47.3334ZM44.7037 47.3334H47.3334V49.963H44.7037V47.3334ZM55.2222 47.3334H57.8519V49.963H55.2222V47.3334ZM60.4815 47.3334H63.1111V49.963H60.4815V47.3334ZM65.7408 47.3334H68.3704V49.963H65.7408V47.3334ZM2.62964 49.963H5.25927V52.5926H2.62964V49.963ZM5.25927 49.963H7.8889V52.5926H5.25927V49.963ZM7.8889 49.963H10.5185V52.5926H7.8889V49.963ZM10.5185 49.963H13.1482V52.5926H10.5185V49.963ZM13.1482 49.963H15.7778V52.5926H13.1482V49.963ZM15.7778 49.963H18.4074V52.5926H15.7778V49.963ZM18.4074 49.963H21.0371V52.5926H18.4074V49.963ZM34.1852 49.963H36.8148V52.5926H34.1852V49.963ZM36.8148 49.963H39.4445V52.5926H36.8148V49.963ZM44.7037 49.963H47.3334V52.5926H44.7037V49.963ZM49.963 49.963H52.5926V52.5926H49.963V49.963ZM55.2222 49.963H57.8519V52.5926H55.2222V49.963ZM60.4815 49.963H63.1111V52.5926H60.4815V49.963ZM63.1111 49.963H65.7408V52.5926H63.1111V49.963ZM65.7408 49.963H68.3704V52.5926H65.7408V49.963ZM2.62964 52.5926H5.25927V55.2222H2.62964V52.5926ZM18.4074 52.5926H21.0371V55.2222H18.4074V52.5926ZM26.2963 52.5926H28.9259V55.2222H26.2963V52.5926ZM28.9259 52.5926H31.5556V55.2222H28.9259V52.5926ZM31.5556 52.5926H34.1852V55.2222H31.5556V52.5926ZM42.0741 52.5926H44.7037V55.2222H42.0741V52.5926ZM44.7037 52.5926H47.3334V55.2222H44.7037V52.5926ZM55.2222 52.5926H57.8519V55.2222H55.2222V52.5926ZM2.62964 55.2222H5.25927V57.8519H2.62964V55.2222ZM7.8889 55.2222H10.5185V57.8519H7.8889V55.2222ZM10.5185 55.2222H13.1482V57.8519H10.5185V55.2222ZM13.1482 55.2222H15.7778V57.8519H13.1482V55.2222ZM18.4074 55.2222H21.0371V57.8519H18.4074V55.2222ZM26.2963 55.2222H28.9259V57.8519H26.2963V55.2222ZM28.9259 55.2222H31.5556V57.8519H28.9259V55.2222ZM31.5556 55.2222H34.1852V57.8519H31.5556V55.2222ZM34.1852 55.2222H36.8148V57.8519H34.1852V55.2222ZM39.4445 55.2222H42.0741V57.8519H39.4445V55.2222ZM44.7037 55.2222H47.3334V57.8519H44.7037V55.2222ZM47.3334 55.2222H49.963V57.8519H47.3334V55.2222ZM49.963 55.2222H52.5926V57.8519H49.963V55.2222ZM52.5926 55.2222H55.2222V57.8519H52.5926V55.2222ZM55.2222 55.2222H57.8519V57.8519H55.2222V55.2222ZM57.8519 55.2222H60.4815V57.8519H57.8519V55.2222ZM65.7408 55.2222H68.3704V57.8519H65.7408V55.2222ZM2.62964 57.8519H5.25927V60.4815H2.62964V57.8519ZM7.8889 57.8519H10.5185V60.4815H7.8889V57.8519ZM10.5185 57.8519H13.1482V60.4815H10.5185V57.8519ZM13.1482 57.8519H15.7778V60.4815H13.1482V57.8519ZM18.4074 57.8519H21.0371V60.4815H18.4074V57.8519ZM23.6667 57.8519H26.2963V60.4815H23.6667V57.8519ZM26.2963 57.8519H28.9259V60.4815H26.2963V57.8519ZM28.9259 57.8519H31.5556V60.4815H28.9259V57.8519ZM31.5556 57.8519H34.1852V60.4815H31.5556V57.8519ZM47.3334 57.8519H49.963V60.4815H47.3334V57.8519ZM49.963 57.8519H52.5926V60.4815H49.963V57.8519ZM55.2222 57.8519H57.8519V60.4815H55.2222V57.8519ZM57.8519 57.8519H60.4815V60.4815H57.8519V57.8519ZM60.4815 57.8519H63.1111V60.4815H60.4815V57.8519ZM63.1111 57.8519H65.7408V60.4815H63.1111V57.8519ZM65.7408 57.8519H68.3704V60.4815H65.7408V57.8519ZM2.62964 60.4815H5.25927V63.1111H2.62964V60.4815ZM7.8889 60.4815H10.5185V63.1111H7.8889V60.4815ZM10.5185 60.4815H13.1482V63.1111H10.5185V60.4815ZM13.1482 60.4815H15.7778V63.1111H13.1482V60.4815ZM18.4074 60.4815H21.0371V63.1111H18.4074V60.4815ZM23.6667 60.4815H26.2963V63.1111H23.6667V60.4815ZM26.2963 60.4815H28.9259V63.1111H26.2963V60.4815ZM28.9259 60.4815H31.5556V63.1111H28.9259V60.4815ZM31.5556 60.4815H34.1852V63.1111H31.5556V60.4815ZM36.8148 60.4815H39.4445V63.1111H36.8148V60.4815ZM44.7037 60.4815H47.3334V63.1111H44.7037V60.4815ZM47.3334 60.4815H49.963V63.1111H47.3334V60.4815ZM49.963 60.4815H52.5926V63.1111H49.963V60.4815ZM55.2222 60.4815H57.8519V63.1111H55.2222V60.4815ZM60.4815 60.4815H63.1111V63.1111H60.4815V60.4815ZM63.1111 60.4815H65.7408V63.1111H63.1111V60.4815ZM2.62964 63.1111H5.25927V65.7408H2.62964V63.1111ZM18.4074 63.1111H21.0371V65.7408H18.4074V63.1111ZM23.6667 63.1111H26.2963V65.7408H23.6667V63.1111ZM26.2963 63.1111H28.9259V65.7408H26.2963V63.1111ZM31.5556 63.1111H34.1852V65.7408H31.5556V63.1111ZM36.8148 63.1111H39.4445V65.7408H36.8148V63.1111ZM39.4445 63.1111H42.0741V65.7408H39.4445V63.1111ZM47.3334 63.1111H49.963V65.7408H47.3334V63.1111ZM49.963 63.1111H52.5926V65.7408H49.963V63.1111ZM55.2222 63.1111H57.8519V65.7408H55.2222V63.1111ZM60.4815 63.1111H63.1111V65.7408H60.4815V63.1111ZM2.62964 65.7408H5.25927V68.3704H2.62964V65.7408ZM5.25927 65.7408H7.8889V68.3704H5.25927V65.7408ZM7.8889 65.7408H10.5185V68.3704H7.8889V65.7408ZM10.5185 65.7408H13.1482V68.3704H10.5185V65.7408ZM13.1482 65.7408H15.7778V68.3704H13.1482V65.7408ZM15.7778 65.7408H18.4074V68.3704H15.7778V65.7408ZM18.4074 65.7408H21.0371V68.3704H18.4074V65.7408ZM23.6667 65.7408H26.2963V68.3704H23.6667V65.7408ZM26.2963 65.7408H28.9259V68.3704H26.2963V65.7408ZM34.1852 65.7408H36.8148V68.3704H34.1852V65.7408ZM36.8148 65.7408H39.4445V68.3704H36.8148V65.7408ZM39.4445 65.7408H42.0741V68.3704H39.4445V65.7408ZM49.963 65.7408H52.5926V68.3704H49.963V65.7408ZM52.5926 65.7408H55.2222V68.3704H52.5926V65.7408ZM55.2222 65.7408H57.8519V68.3704H55.2222V65.7408ZM57.8519 65.7408H60.4815V68.3704H57.8519V65.7408ZM60.4815 65.7408H63.1111V68.3704H60.4815V65.7408ZM63.1111 65.7408H65.7408V68.3704H63.1111V65.7408ZM65.7408 65.7408H68.3704V68.3704H65.7408V65.7408Z" fill="#0F172B"/>
</g>
</g>
<defs>
<clipPath id="clip0_3635_8320">
<rect width="71" height="71" fill="white"/>
</clipPath>
<clipPath id="clip1_3635_8320">
<rect width="71" height="71" fill="white"/>
</clipPath>
</defs>
</svg>
