<svg width="42" height="20" viewBox="0 0 42 20" fill="none" xmlns="http://www.w3.org/2000/svg">
<path d="M25.4978 16.25H27.5594V4.16667H25.4978V16.25Z" fill="black"/>
<path d="M30.2273 16.25H35.1073C38.7839 16.25 41.3953 13.7477 41.3953 10.1998C41.3953 6.66903 38.7839 4.16667 35.1073 4.16667H30.2273V16.25ZM32.2889 14.3647V6.05201H35.1073C37.5641 6.05201 39.2478 7.74882 39.2478 10.1998C39.2478 12.6678 37.5641 14.3647 35.1073 14.3647H32.2889Z" fill="black"/>
<path d="M0.395325 9.6C0.395325 5.07452 0.395325 2.81177 1.80698 1.40589C3.21862 0 5.49063 0 10.0347 0H10.8379C15.382 0 17.654 0 19.0656 1.40589C20.4773 2.81177 20.4773 5.07452 20.4773 9.6V10.4C20.4773 14.9255 20.4773 17.1883 19.0656 18.5941C17.654 20 15.382 20 10.8379 20H10.0347C5.49063 20 3.21862 20 1.80698 18.5941C0.395325 17.1883 0.395325 14.9255 0.395325 10.4V9.6Z" fill="#0077FF"/>
<path d="M11.1202 14.5833C6.58919 14.5833 3.84022 11.4525 3.73251 6.25H6.02733C6.09887 10.0717 7.84471 11.6911 9.18301 12.0241V6.25H11.3822V9.54808C12.6731 9.40558 14.0243 7.90546 14.4784 6.25H16.643C16.2966 8.2857 14.8256 9.78583 13.7864 10.4047C14.8265 10.905 16.4999 12.2146 17.1454 14.5833H14.7662C14.2638 12.9999 13.0332 11.7735 11.383 11.607V14.5833H11.1202Z" fill="white"/>
</svg>
