<svg width="34" height="20" viewBox="0 0 34 20" fill="none" xmlns="http://www.w3.org/2000/svg">
<path d="M7.68851 4.57275H6.53327C4.41875 4.57275 3.30523 5.64455 3.30523 7.23046C3.30523 9.02974 4.07537 9.86296 5.66226 10.9348L6.96492 11.8126L3.19852 17.4384H0.395325L3.77179 12.4052C1.82215 11.0143 0.731902 9.66798 0.731902 7.37306C0.731902 4.50195 2.72325 2.56104 6.50611 2.56104H10.2715V17.4394H7.68851V4.57275Z" fill="#EF4444"/>
<path fill-rule="evenodd" clip-rule="evenodd" d="M23.605 20C31.6051 20 33.6048 18 33.6048 10C33.6048 2 31.6051 0 23.605 0C15.6052 0 13.605 2 13.605 10C13.605 18 15.6052 20 23.605 20ZM20.1607 15.9898V3.9898H18.0717V15.9898H20.1607ZM25.305 3.9898C26.0941 3.9898 26.8271 4.08981 27.5051 4.30092C28.1826 4.50092 28.7608 4.84535 29.2497 5.31201C29.7384 5.76759 30.1274 6.3898 30.4048 7.13425C30.6938 7.8787 30.8273 8.82314 30.8273 9.92313C30.8273 10.9009 30.6828 11.7676 30.4048 12.5231C30.1161 13.2676 29.7271 13.9009 29.2274 14.4231C28.7272 14.9454 28.1164 15.3342 27.4271 15.5898C26.7386 15.8454 25.9607 15.9898 25.1384 15.9898H22.5048V3.9898H25.305ZM24.9608 14.3676C25.5159 14.3676 26.0385 14.2676 26.5053 14.0787C26.9605 13.8898 27.3496 13.6009 27.683 13.2454C28.0161 12.8676 28.2604 12.412 28.4495 11.8454C28.6274 11.2787 28.7272 10.6342 28.7272 9.8898C28.7272 9.07867 28.6384 8.41201 28.4719 7.85647C28.294 7.31202 28.0497 6.86758 27.7384 6.53424C27.4271 6.20092 27.0496 5.95647 26.6048 5.81201C26.1716 5.66758 25.683 5.60091 25.1497 5.60091H24.6051V14.3453H24.9827L24.9608 14.3676Z" fill="black" fill-opacity="0.86"/>
</svg>
